<svg version="1.1" xmlns="http://www.w3.org/2000/svg" xmlns:xlink="http://www.w3.org/1999/xlink" width="32.43095" height="27.86939" viewBox="0,0,32.43095,27.86939"><g transform="translate(-223.78453,-166.06531)"><g fill="#575e75" fill-rule="evenodd" stroke="#575e75" stroke-width="0.5" stroke-linecap="round" stroke-linejoin="round" stroke-miterlimit="10"><path d="M245.8815,182.76021c-2.18748,2.18748 -3.79932,3.31001 -5.06575,3.74175c-0.37417,-1.15131 -1.00739,-2.21627 -1.89966,-3.10853c-0.92105,-0.89226 -1.98601,-1.52548 -3.13731,-1.92844c0.46052,-1.26644 1.58305,-2.87827 3.74175,-5.03697c5.18088,-5.20967 14.39134,-11.57064 16.14709,-9.8149c1.75574,1.75574 -4.60523,10.9662 -9.78612,16.14709zM236.33078,192.34362c-0.85655,0.82759 -1.96178,1.25474 -3.067,1.30813v0.0267h-0.27631c-7.40502,0.26697 -10.63781,-8.11576 -8.09579,-7.23477c3.34331,1.14795 4.69998,-0.50723 4.75248,-0.56063c1.85125,-1.76197 4.83537,-1.76197 6.68662,0c1.85125,1.78867 1.85125,4.6986 0,6.46057z"/></g></g></svg>